<mxfile host="Electron" agent="Mozilla/5.0 (Macintosh; Intel Mac OS X 10_15_7) AppleWebKit/537.36 (KHTML, like Gecko) draw.io/26.0.4 Chrome/128.0.6613.186 Electron/32.2.5 Safari/537.36" version="26.0.4">
  <diagram name="Page-1" id="vc2-ugjVfAUITuuNlwr3">
    <mxGraphModel dx="2925" dy="1465" grid="1" gridSize="10" guides="1" tooltips="1" connect="1" arrows="1" fold="1" page="1" pageScale="1" pageWidth="850" pageHeight="1100" math="0" shadow="0">
      <root>
        <mxCell id="0" />
        <mxCell id="1" parent="0" />
        <mxCell id="wyJI5OHo2Kch5RlbWxAS-3" style="edgeStyle=orthogonalEdgeStyle;rounded=0;orthogonalLoop=1;jettySize=auto;html=1;exitX=0.5;exitY=0;exitDx=0;exitDy=0;entryX=1;entryY=0.5;entryDx=0;entryDy=0;curved=1;" parent="1" source="wyJI5OHo2Kch5RlbWxAS-1" target="wyJI5OHo2Kch5RlbWxAS-1" edge="1">
          <mxGeometry relative="1" as="geometry">
            <mxPoint x="-630" y="920" as="targetPoint" />
            <Array as="points">
              <mxPoint x="-720" y="1040" />
              <mxPoint x="-640" y="1040" />
              <mxPoint x="-640" y="1120" />
            </Array>
          </mxGeometry>
        </mxCell>
        <mxCell id="wyJI5OHo2Kch5RlbWxAS-4" value="On Timer" style="edgeLabel;html=1;align=center;verticalAlign=middle;resizable=0;points=[];" parent="wyJI5OHo2Kch5RlbWxAS-3" vertex="1" connectable="0">
          <mxGeometry x="-0.3167" y="-1" relative="1" as="geometry">
            <mxPoint as="offset" />
          </mxGeometry>
        </mxCell>
        <mxCell id="wyJI5OHo2Kch5RlbWxAS-1" value="IMU&lt;div&gt;Data&lt;/div&gt;&lt;div&gt;Pulling&lt;/div&gt;" style="ellipse;whiteSpace=wrap;html=1;aspect=fixed;" parent="1" vertex="1">
          <mxGeometry x="-760" y="1080" width="80" height="80" as="geometry" />
        </mxCell>
        <mxCell id="wyJI5OHo2Kch5RlbWxAS-5" style="edgeStyle=orthogonalEdgeStyle;rounded=0;orthogonalLoop=1;jettySize=auto;html=1;exitX=0.5;exitY=0;exitDx=0;exitDy=0;entryX=1;entryY=0.5;entryDx=0;entryDy=0;curved=1;" parent="1" source="wyJI5OHo2Kch5RlbWxAS-7" target="wyJI5OHo2Kch5RlbWxAS-7" edge="1">
          <mxGeometry relative="1" as="geometry">
            <mxPoint x="-470" y="920" as="targetPoint" />
            <Array as="points">
              <mxPoint x="-560" y="1040" />
              <mxPoint x="-480" y="1040" />
              <mxPoint x="-480" y="1120" />
            </Array>
          </mxGeometry>
        </mxCell>
        <mxCell id="wyJI5OHo2Kch5RlbWxAS-6" value="On Timer" style="edgeLabel;html=1;align=center;verticalAlign=middle;resizable=0;points=[];" parent="wyJI5OHo2Kch5RlbWxAS-5" vertex="1" connectable="0">
          <mxGeometry x="-0.3167" y="-1" relative="1" as="geometry">
            <mxPoint as="offset" />
          </mxGeometry>
        </mxCell>
        <mxCell id="wyJI5OHo2Kch5RlbWxAS-7" value="Pitch Calculation" style="ellipse;whiteSpace=wrap;html=1;aspect=fixed;" parent="1" vertex="1">
          <mxGeometry x="-600" y="1080" width="80" height="80" as="geometry" />
        </mxCell>
        <mxCell id="wyJI5OHo2Kch5RlbWxAS-8" style="edgeStyle=orthogonalEdgeStyle;rounded=0;orthogonalLoop=1;jettySize=auto;html=1;exitX=0.5;exitY=0;exitDx=0;exitDy=0;entryX=1;entryY=0.5;entryDx=0;entryDy=0;curved=1;" parent="1" source="wyJI5OHo2Kch5RlbWxAS-10" target="wyJI5OHo2Kch5RlbWxAS-10" edge="1">
          <mxGeometry relative="1" as="geometry">
            <mxPoint x="-470" y="1080" as="targetPoint" />
            <Array as="points">
              <mxPoint x="-560" y="1200" />
              <mxPoint x="-480" y="1200" />
              <mxPoint x="-480" y="1280" />
            </Array>
          </mxGeometry>
        </mxCell>
        <mxCell id="wyJI5OHo2Kch5RlbWxAS-9" value="On Timer" style="edgeLabel;html=1;align=center;verticalAlign=middle;resizable=0;points=[];" parent="wyJI5OHo2Kch5RlbWxAS-8" vertex="1" connectable="0">
          <mxGeometry x="-0.3167" y="-1" relative="1" as="geometry">
            <mxPoint as="offset" />
          </mxGeometry>
        </mxCell>
        <mxCell id="wyJI5OHo2Kch5RlbWxAS-10" value="HUD" style="ellipse;whiteSpace=wrap;html=1;aspect=fixed;" parent="1" vertex="1">
          <mxGeometry x="-600" y="1240" width="80" height="80" as="geometry" />
        </mxCell>
        <mxCell id="wyJI5OHo2Kch5RlbWxAS-11" style="edgeStyle=orthogonalEdgeStyle;rounded=0;orthogonalLoop=1;jettySize=auto;html=1;exitX=0.5;exitY=0;exitDx=0;exitDy=0;entryX=1;entryY=0.5;entryDx=0;entryDy=0;curved=1;" parent="1" source="wyJI5OHo2Kch5RlbWxAS-13" target="wyJI5OHo2Kch5RlbWxAS-13" edge="1">
          <mxGeometry relative="1" as="geometry">
            <mxPoint x="-630" y="1080" as="targetPoint" />
            <Array as="points">
              <mxPoint x="-720" y="1200" />
              <mxPoint x="-640" y="1200" />
              <mxPoint x="-640" y="1280" />
            </Array>
          </mxGeometry>
        </mxCell>
        <mxCell id="wyJI5OHo2Kch5RlbWxAS-12" value="On Timer" style="edgeLabel;html=1;align=center;verticalAlign=middle;resizable=0;points=[];" parent="wyJI5OHo2Kch5RlbWxAS-11" vertex="1" connectable="0">
          <mxGeometry x="-0.3167" y="-1" relative="1" as="geometry">
            <mxPoint as="offset" />
          </mxGeometry>
        </mxCell>
        <mxCell id="wyJI5OHo2Kch5RlbWxAS-13" value="Pressure Sensor Data Pulling" style="ellipse;whiteSpace=wrap;html=1;aspect=fixed;" parent="1" vertex="1">
          <mxGeometry x="-760" y="1240" width="80" height="80" as="geometry" />
        </mxCell>
        <mxCell id="_yVc6Fe7BxlGdp1vEw1C-26" style="edgeStyle=orthogonalEdgeStyle;shape=connector;curved=1;rounded=0;orthogonalLoop=1;jettySize=auto;html=1;exitX=0.5;exitY=0;exitDx=0;exitDy=0;entryX=0;entryY=0.5;entryDx=0;entryDy=0;strokeColor=default;align=center;verticalAlign=middle;fontFamily=Helvetica;fontSize=11;fontColor=default;labelBackgroundColor=default;endArrow=classic;" edge="1" parent="1" source="wyJI5OHo2Kch5RlbWxAS-14" target="_yVc6Fe7BxlGdp1vEw1C-16">
          <mxGeometry relative="1" as="geometry" />
        </mxCell>
        <mxCell id="wyJI5OHo2Kch5RlbWxAS-14" value="Idle 0" style="ellipse;whiteSpace=wrap;html=1;aspect=fixed;" parent="1" vertex="1">
          <mxGeometry x="100" y="760" width="80" height="80" as="geometry" />
        </mxCell>
        <mxCell id="_yVc6Fe7BxlGdp1vEw1C-29" style="edgeStyle=orthogonalEdgeStyle;shape=connector;curved=1;rounded=0;orthogonalLoop=1;jettySize=auto;html=1;exitX=0.5;exitY=1;exitDx=0;exitDy=0;entryX=1;entryY=0.5;entryDx=0;entryDy=0;strokeColor=default;align=center;verticalAlign=middle;fontFamily=Helvetica;fontSize=11;fontColor=default;labelBackgroundColor=default;endArrow=classic;" edge="1" parent="1" source="wyJI5OHo2Kch5RlbWxAS-16" target="_yVc6Fe7BxlGdp1vEw1C-19">
          <mxGeometry relative="1" as="geometry" />
        </mxCell>
        <mxCell id="_yVc6Fe7BxlGdp1vEw1C-31" style="edgeStyle=orthogonalEdgeStyle;shape=connector;curved=1;rounded=0;orthogonalLoop=1;jettySize=auto;html=1;exitX=0.5;exitY=0;exitDx=0;exitDy=0;entryX=0;entryY=0.5;entryDx=0;entryDy=0;strokeColor=default;align=center;verticalAlign=middle;fontFamily=Helvetica;fontSize=11;fontColor=default;labelBackgroundColor=default;endArrow=classic;" edge="1" parent="1" source="wyJI5OHo2Kch5RlbWxAS-16" target="_yVc6Fe7BxlGdp1vEw1C-18">
          <mxGeometry relative="1" as="geometry" />
        </mxCell>
        <mxCell id="wyJI5OHo2Kch5RlbWxAS-16" value="&lt;div&gt;Gravity Vec&lt;/div&gt;&lt;div&gt;Pressure&lt;/div&gt;&lt;div&gt;Calibrate 0&lt;/div&gt;" style="ellipse;whiteSpace=wrap;html=1;aspect=fixed;fontFamily=Helvetica;fontSize=11;fontColor=default;labelBackgroundColor=default;" parent="1" vertex="1">
          <mxGeometry x="280" y="760" width="80" height="80" as="geometry" />
        </mxCell>
        <mxCell id="_yVc6Fe7BxlGdp1vEw1C-33" style="edgeStyle=orthogonalEdgeStyle;shape=connector;curved=1;rounded=0;orthogonalLoop=1;jettySize=auto;html=1;exitX=1;exitY=1;exitDx=0;exitDy=0;entryX=1;entryY=0.5;entryDx=0;entryDy=0;strokeColor=default;align=center;verticalAlign=middle;fontFamily=Helvetica;fontSize=11;fontColor=default;labelBackgroundColor=default;endArrow=classic;" edge="1" parent="1" source="wyJI5OHo2Kch5RlbWxAS-17" target="_yVc6Fe7BxlGdp1vEw1C-20">
          <mxGeometry relative="1" as="geometry">
            <Array as="points">
              <mxPoint x="590" y="828" />
              <mxPoint x="590" y="870" />
            </Array>
          </mxGeometry>
        </mxCell>
        <mxCell id="_yVc6Fe7BxlGdp1vEw1C-35" style="edgeStyle=orthogonalEdgeStyle;shape=connector;curved=1;rounded=0;orthogonalLoop=1;jettySize=auto;html=1;exitX=0.5;exitY=0;exitDx=0;exitDy=0;entryX=0;entryY=0.5;entryDx=0;entryDy=0;strokeColor=default;align=center;verticalAlign=middle;fontFamily=Helvetica;fontSize=11;fontColor=default;labelBackgroundColor=default;endArrow=classic;" edge="1" parent="1" source="wyJI5OHo2Kch5RlbWxAS-17" target="_yVc6Fe7BxlGdp1vEw1C-23">
          <mxGeometry relative="1" as="geometry" />
        </mxCell>
        <mxCell id="wyJI5OHo2Kch5RlbWxAS-17" value="&lt;div&gt;&lt;div&gt;Gravity Vec&lt;/div&gt;&lt;div&gt;Pressure&lt;/div&gt;Calibrate&amp;nbsp;&lt;/div&gt;&lt;div&gt;Start&lt;br&gt;&lt;/div&gt;" style="ellipse;whiteSpace=wrap;html=1;aspect=fixed;fontFamily=Helvetica;fontSize=11;fontColor=default;labelBackgroundColor=default;" parent="1" vertex="1">
          <mxGeometry x="480" y="760" width="80" height="80" as="geometry" />
        </mxCell>
        <mxCell id="_yVc6Fe7BxlGdp1vEw1C-165" style="edgeStyle=orthogonalEdgeStyle;shape=connector;curved=1;rounded=0;orthogonalLoop=1;jettySize=auto;html=1;exitX=0.5;exitY=1;exitDx=0;exitDy=0;entryX=0.5;entryY=0;entryDx=0;entryDy=0;strokeColor=default;align=center;verticalAlign=middle;fontFamily=Helvetica;fontSize=11;fontColor=default;labelBackgroundColor=default;endArrow=classic;" edge="1" parent="1" source="wyJI5OHo2Kch5RlbWxAS-18" target="_yVc6Fe7BxlGdp1vEw1C-110">
          <mxGeometry relative="1" as="geometry" />
        </mxCell>
        <mxCell id="wyJI5OHo2Kch5RlbWxAS-18" value="&lt;div&gt;&lt;div&gt;Gravity Vec&lt;/div&gt;&lt;div&gt;Pressure&lt;/div&gt;Calibrate&amp;nbsp;&lt;/div&gt;&lt;div&gt;Finished&lt;br&gt;&lt;/div&gt;" style="ellipse;whiteSpace=wrap;html=1;aspect=fixed;fontFamily=Helvetica;fontSize=11;fontColor=default;labelBackgroundColor=default;" parent="1" vertex="1">
          <mxGeometry x="680" y="760" width="80" height="80" as="geometry" />
        </mxCell>
        <mxCell id="wyJI5OHo2Kch5RlbWxAS-42" value="Zero Gravity Vector&lt;div&gt;Zero Pressure&lt;/div&gt;" style="rounded=1;whiteSpace=wrap;html=1;fontFamily=Helvetica;fontSize=11;fontColor=default;labelBackgroundColor=default;" parent="1" vertex="1">
          <mxGeometry x="560" y="680" width="120" height="40" as="geometry" />
        </mxCell>
        <mxCell id="_yVc6Fe7BxlGdp1vEw1C-2" value="&lt;span style=&quot;font-size: 11px; text-wrap: nowrap; background-color: rgb(255, 255, 255);&quot;&gt;Timer 1 Record Current Time&lt;/span&gt;" style="rounded=1;whiteSpace=wrap;html=1;" vertex="1" parent="1">
          <mxGeometry x="150" y="700" width="160" height="20" as="geometry" />
        </mxCell>
        <mxCell id="_yVc6Fe7BxlGdp1vEw1C-28" style="edgeStyle=orthogonalEdgeStyle;shape=connector;curved=1;rounded=0;orthogonalLoop=1;jettySize=auto;html=1;exitX=1;exitY=0.5;exitDx=0;exitDy=0;entryX=0.5;entryY=0;entryDx=0;entryDy=0;strokeColor=default;align=center;verticalAlign=middle;fontFamily=Helvetica;fontSize=11;fontColor=default;labelBackgroundColor=default;endArrow=classic;" edge="1" parent="1" source="_yVc6Fe7BxlGdp1vEw1C-16" target="wyJI5OHo2Kch5RlbWxAS-16">
          <mxGeometry relative="1" as="geometry" />
        </mxCell>
        <mxCell id="_yVc6Fe7BxlGdp1vEw1C-16" value="&lt;span style=&quot;text-wrap: nowrap;&quot;&gt;BTN_CBGV&lt;/span&gt;" style="shape=hexagon;perimeter=hexagonPerimeter2;whiteSpace=wrap;html=1;fixedSize=1;fontFamily=Helvetica;fontSize=11;fontColor=default;labelBackgroundColor=default;size=10;" vertex="1" parent="1">
          <mxGeometry x="180" y="720" width="100" height="20" as="geometry" />
        </mxCell>
        <mxCell id="_yVc6Fe7BxlGdp1vEw1C-32" style="edgeStyle=orthogonalEdgeStyle;shape=connector;curved=1;rounded=0;orthogonalLoop=1;jettySize=auto;html=1;exitX=1;exitY=0.5;exitDx=0;exitDy=0;entryX=0.5;entryY=0;entryDx=0;entryDy=0;strokeColor=default;align=center;verticalAlign=middle;fontFamily=Helvetica;fontSize=11;fontColor=default;labelBackgroundColor=default;endArrow=classic;" edge="1" parent="1" source="_yVc6Fe7BxlGdp1vEw1C-18" target="wyJI5OHo2Kch5RlbWxAS-17">
          <mxGeometry relative="1" as="geometry" />
        </mxCell>
        <mxCell id="_yVc6Fe7BxlGdp1vEw1C-18" value="&lt;span style=&quot;text-wrap: nowrap;&quot;&gt;Timer 1&amp;nbsp;&lt;/span&gt;&lt;span style=&quot;text-wrap: nowrap;&quot;&gt;2s Passed&lt;/span&gt;" style="shape=hexagon;perimeter=hexagonPerimeter2;whiteSpace=wrap;html=1;fixedSize=1;fontFamily=Helvetica;fontSize=11;fontColor=default;labelBackgroundColor=default;size=10;" vertex="1" parent="1">
          <mxGeometry x="360" y="720" width="120" height="20" as="geometry" />
        </mxCell>
        <mxCell id="_yVc6Fe7BxlGdp1vEw1C-30" style="edgeStyle=orthogonalEdgeStyle;shape=connector;curved=1;rounded=0;orthogonalLoop=1;jettySize=auto;html=1;exitX=0;exitY=0.5;exitDx=0;exitDy=0;entryX=0.5;entryY=1;entryDx=0;entryDy=0;strokeColor=default;align=center;verticalAlign=middle;fontFamily=Helvetica;fontSize=11;fontColor=default;labelBackgroundColor=default;endArrow=classic;" edge="1" parent="1" source="_yVc6Fe7BxlGdp1vEw1C-19" target="wyJI5OHo2Kch5RlbWxAS-14">
          <mxGeometry relative="1" as="geometry" />
        </mxCell>
        <mxCell id="_yVc6Fe7BxlGdp1vEw1C-19" value="&lt;span style=&quot;text-wrap: nowrap;&quot;&gt;! BTN_CBGV&lt;/span&gt;" style="shape=hexagon;perimeter=hexagonPerimeter2;whiteSpace=wrap;html=1;fixedSize=1;fontFamily=Helvetica;fontSize=11;fontColor=default;labelBackgroundColor=default;size=10;" vertex="1" parent="1">
          <mxGeometry x="180" y="860" width="100" height="20" as="geometry" />
        </mxCell>
        <mxCell id="_yVc6Fe7BxlGdp1vEw1C-34" style="edgeStyle=orthogonalEdgeStyle;shape=connector;curved=1;rounded=0;orthogonalLoop=1;jettySize=auto;html=1;exitX=0;exitY=0.5;exitDx=0;exitDy=0;entryX=0;entryY=1;entryDx=0;entryDy=0;strokeColor=default;align=center;verticalAlign=middle;fontFamily=Helvetica;fontSize=11;fontColor=default;labelBackgroundColor=default;endArrow=classic;" edge="1" parent="1" source="_yVc6Fe7BxlGdp1vEw1C-20" target="wyJI5OHo2Kch5RlbWxAS-17">
          <mxGeometry relative="1" as="geometry">
            <Array as="points">
              <mxPoint x="450" y="870" />
              <mxPoint x="450" y="828" />
            </Array>
          </mxGeometry>
        </mxCell>
        <mxCell id="_yVc6Fe7BxlGdp1vEw1C-20" value="&lt;span style=&quot;text-wrap: nowrap;&quot;&gt;true&lt;/span&gt;" style="shape=hexagon;perimeter=hexagonPerimeter2;whiteSpace=wrap;html=1;fixedSize=1;fontFamily=Helvetica;fontSize=11;fontColor=default;labelBackgroundColor=default;size=10;" vertex="1" parent="1">
          <mxGeometry x="490" y="860" width="60" height="20" as="geometry" />
        </mxCell>
        <mxCell id="_yVc6Fe7BxlGdp1vEw1C-22" value="&lt;span style=&quot;font-size: 11px; text-wrap: nowrap; background-color: rgb(255, 255, 255);&quot;&gt;Timer 1&amp;nbsp;Record Current Time&lt;/span&gt;" style="rounded=1;whiteSpace=wrap;html=1;" vertex="1" parent="1">
          <mxGeometry x="340" y="700" width="160" height="20" as="geometry" />
        </mxCell>
        <mxCell id="_yVc6Fe7BxlGdp1vEw1C-36" style="edgeStyle=orthogonalEdgeStyle;shape=connector;curved=1;rounded=0;orthogonalLoop=1;jettySize=auto;html=1;exitX=1;exitY=0.5;exitDx=0;exitDy=0;entryX=0.5;entryY=0;entryDx=0;entryDy=0;strokeColor=default;align=center;verticalAlign=middle;fontFamily=Helvetica;fontSize=11;fontColor=default;labelBackgroundColor=default;endArrow=classic;" edge="1" parent="1" source="_yVc6Fe7BxlGdp1vEw1C-23" target="wyJI5OHo2Kch5RlbWxAS-18">
          <mxGeometry relative="1" as="geometry" />
        </mxCell>
        <mxCell id="_yVc6Fe7BxlGdp1vEw1C-23" value="&lt;span style=&quot;text-wrap: nowrap;&quot;&gt;Timer 1&lt;/span&gt;&lt;span style=&quot;text-wrap: nowrap;&quot;&gt;&amp;nbsp;2s Passed&lt;/span&gt;" style="shape=hexagon;perimeter=hexagonPerimeter2;whiteSpace=wrap;html=1;fixedSize=1;fontFamily=Helvetica;fontSize=11;fontColor=default;labelBackgroundColor=default;size=10;" vertex="1" parent="1">
          <mxGeometry x="560" y="720" width="120" height="20" as="geometry" />
        </mxCell>
        <mxCell id="_yVc6Fe7BxlGdp1vEw1C-24" value="&lt;span style=&quot;font-size: 11px; text-wrap: nowrap; background-color: rgb(255, 255, 255);&quot;&gt;Record IMU Acceleration&lt;/span&gt;&lt;div&gt;&lt;span style=&quot;font-size: 11px; text-wrap: nowrap; background-color: rgb(255, 255, 255);&quot;&gt;Record Pressure&lt;/span&gt;&lt;/div&gt;" style="rounded=1;whiteSpace=wrap;html=1;" vertex="1" parent="1">
          <mxGeometry x="450" y="880" width="140" height="40" as="geometry" />
        </mxCell>
        <mxCell id="_yVc6Fe7BxlGdp1vEw1C-83" style="edgeStyle=orthogonalEdgeStyle;shape=connector;curved=1;rounded=0;orthogonalLoop=1;jettySize=auto;html=1;exitX=0.5;exitY=0;exitDx=0;exitDy=0;entryX=0;entryY=0.5;entryDx=0;entryDy=0;strokeColor=default;align=center;verticalAlign=middle;fontFamily=Helvetica;fontSize=11;fontColor=default;labelBackgroundColor=default;endArrow=classic;" edge="1" parent="1" source="_yVc6Fe7BxlGdp1vEw1C-84" target="_yVc6Fe7BxlGdp1vEw1C-95">
          <mxGeometry relative="1" as="geometry" />
        </mxCell>
        <mxCell id="_yVc6Fe7BxlGdp1vEw1C-125" style="edgeStyle=orthogonalEdgeStyle;shape=connector;curved=1;rounded=0;orthogonalLoop=1;jettySize=auto;html=1;exitX=0.5;exitY=0;exitDx=0;exitDy=0;entryX=1;entryY=0.5;entryDx=0;entryDy=0;strokeColor=default;align=center;verticalAlign=middle;fontFamily=Helvetica;fontSize=11;fontColor=default;labelBackgroundColor=default;endArrow=classic;" edge="1" parent="1" source="_yVc6Fe7BxlGdp1vEw1C-84" target="_yVc6Fe7BxlGdp1vEw1C-123">
          <mxGeometry relative="1" as="geometry" />
        </mxCell>
        <mxCell id="_yVc6Fe7BxlGdp1vEw1C-84" value="Idle 1" style="ellipse;whiteSpace=wrap;html=1;aspect=fixed;" vertex="1" parent="1">
          <mxGeometry x="100" y="1140" width="80" height="80" as="geometry" />
        </mxCell>
        <mxCell id="_yVc6Fe7BxlGdp1vEw1C-85" style="edgeStyle=orthogonalEdgeStyle;shape=connector;curved=1;rounded=0;orthogonalLoop=1;jettySize=auto;html=1;exitX=0.5;exitY=1;exitDx=0;exitDy=0;entryX=1;entryY=0.5;entryDx=0;entryDy=0;strokeColor=default;align=center;verticalAlign=middle;fontFamily=Helvetica;fontSize=11;fontColor=default;labelBackgroundColor=default;endArrow=classic;" edge="1" parent="1" source="_yVc6Fe7BxlGdp1vEw1C-87" target="_yVc6Fe7BxlGdp1vEw1C-99">
          <mxGeometry relative="1" as="geometry" />
        </mxCell>
        <mxCell id="_yVc6Fe7BxlGdp1vEw1C-86" style="edgeStyle=orthogonalEdgeStyle;shape=connector;curved=1;rounded=0;orthogonalLoop=1;jettySize=auto;html=1;exitX=0.5;exitY=0;exitDx=0;exitDy=0;entryX=0;entryY=0.5;entryDx=0;entryDy=0;strokeColor=default;align=center;verticalAlign=middle;fontFamily=Helvetica;fontSize=11;fontColor=default;labelBackgroundColor=default;endArrow=classic;" edge="1" parent="1" source="_yVc6Fe7BxlGdp1vEw1C-87" target="_yVc6Fe7BxlGdp1vEw1C-97">
          <mxGeometry relative="1" as="geometry" />
        </mxCell>
        <mxCell id="_yVc6Fe7BxlGdp1vEw1C-87" value="&lt;div&gt;Pitch Vec&lt;/div&gt;&lt;div&gt;Calibrate&lt;/div&gt;" style="ellipse;whiteSpace=wrap;html=1;aspect=fixed;fontFamily=Helvetica;fontSize=11;fontColor=default;labelBackgroundColor=default;" vertex="1" parent="1">
          <mxGeometry x="280" y="1140" width="80" height="80" as="geometry" />
        </mxCell>
        <mxCell id="_yVc6Fe7BxlGdp1vEw1C-88" style="edgeStyle=orthogonalEdgeStyle;shape=connector;curved=1;rounded=0;orthogonalLoop=1;jettySize=auto;html=1;exitX=1;exitY=1;exitDx=0;exitDy=0;entryX=1;entryY=0.5;entryDx=0;entryDy=0;strokeColor=default;align=center;verticalAlign=middle;fontFamily=Helvetica;fontSize=11;fontColor=default;labelBackgroundColor=default;endArrow=classic;" edge="1" parent="1" source="_yVc6Fe7BxlGdp1vEw1C-90" target="_yVc6Fe7BxlGdp1vEw1C-101">
          <mxGeometry relative="1" as="geometry">
            <Array as="points">
              <mxPoint x="590" y="1208" />
              <mxPoint x="590" y="1250" />
            </Array>
          </mxGeometry>
        </mxCell>
        <mxCell id="_yVc6Fe7BxlGdp1vEw1C-89" style="edgeStyle=orthogonalEdgeStyle;shape=connector;curved=1;rounded=0;orthogonalLoop=1;jettySize=auto;html=1;exitX=0.5;exitY=0;exitDx=0;exitDy=0;entryX=0;entryY=0.5;entryDx=0;entryDy=0;strokeColor=default;align=center;verticalAlign=middle;fontFamily=Helvetica;fontSize=11;fontColor=default;labelBackgroundColor=default;endArrow=classic;" edge="1" parent="1" source="_yVc6Fe7BxlGdp1vEw1C-90" target="_yVc6Fe7BxlGdp1vEw1C-104">
          <mxGeometry relative="1" as="geometry" />
        </mxCell>
        <mxCell id="_yVc6Fe7BxlGdp1vEw1C-90" value="&lt;div&gt;Pitch Vec&lt;/div&gt;&lt;div&gt;Calibrate&lt;/div&gt;&lt;div&gt;Start&lt;/div&gt;" style="ellipse;whiteSpace=wrap;html=1;aspect=fixed;fontFamily=Helvetica;fontSize=11;fontColor=default;labelBackgroundColor=default;" vertex="1" parent="1">
          <mxGeometry x="480" y="1140" width="80" height="80" as="geometry" />
        </mxCell>
        <mxCell id="_yVc6Fe7BxlGdp1vEw1C-168" style="edgeStyle=orthogonalEdgeStyle;shape=connector;curved=1;rounded=0;orthogonalLoop=1;jettySize=auto;html=1;exitX=0.5;exitY=1;exitDx=0;exitDy=0;entryX=0.5;entryY=0;entryDx=0;entryDy=0;strokeColor=default;align=center;verticalAlign=middle;fontFamily=Helvetica;fontSize=11;fontColor=default;labelBackgroundColor=default;endArrow=classic;" edge="1" parent="1" source="_yVc6Fe7BxlGdp1vEw1C-91" target="_yVc6Fe7BxlGdp1vEw1C-119">
          <mxGeometry relative="1" as="geometry" />
        </mxCell>
        <mxCell id="_yVc6Fe7BxlGdp1vEw1C-91" value="&lt;div&gt;Pitch Vec&lt;/div&gt;&lt;div&gt;Calibrate&lt;/div&gt;&lt;div&gt;Finished&lt;/div&gt;" style="ellipse;whiteSpace=wrap;html=1;aspect=fixed;fontFamily=Helvetica;fontSize=11;fontColor=default;labelBackgroundColor=default;" vertex="1" parent="1">
          <mxGeometry x="680" y="1140" width="80" height="80" as="geometry" />
        </mxCell>
        <mxCell id="_yVc6Fe7BxlGdp1vEw1C-92" value="Zero Pitch Vector" style="rounded=1;whiteSpace=wrap;html=1;fontFamily=Helvetica;fontSize=11;fontColor=default;labelBackgroundColor=default;" vertex="1" parent="1">
          <mxGeometry x="560" y="1080" width="120" height="20" as="geometry" />
        </mxCell>
        <mxCell id="_yVc6Fe7BxlGdp1vEw1C-93" value="&lt;span style=&quot;font-size: 11px; text-wrap: nowrap; background-color: rgb(255, 255, 255);&quot;&gt;Timer 1 Record Current Time&lt;/span&gt;" style="rounded=1;whiteSpace=wrap;html=1;" vertex="1" parent="1">
          <mxGeometry x="150" y="1080" width="160" height="20" as="geometry" />
        </mxCell>
        <mxCell id="_yVc6Fe7BxlGdp1vEw1C-94" style="edgeStyle=orthogonalEdgeStyle;shape=connector;curved=1;rounded=0;orthogonalLoop=1;jettySize=auto;html=1;exitX=1;exitY=0.5;exitDx=0;exitDy=0;entryX=0.5;entryY=0;entryDx=0;entryDy=0;strokeColor=default;align=center;verticalAlign=middle;fontFamily=Helvetica;fontSize=11;fontColor=default;labelBackgroundColor=default;endArrow=classic;" edge="1" parent="1" source="_yVc6Fe7BxlGdp1vEw1C-95" target="_yVc6Fe7BxlGdp1vEw1C-87">
          <mxGeometry relative="1" as="geometry" />
        </mxCell>
        <mxCell id="_yVc6Fe7BxlGdp1vEw1C-95" value="&lt;span style=&quot;text-wrap: nowrap;&quot;&gt;BTN_CBPCH&lt;/span&gt;" style="shape=hexagon;perimeter=hexagonPerimeter2;whiteSpace=wrap;html=1;fixedSize=1;fontFamily=Helvetica;fontSize=11;fontColor=default;labelBackgroundColor=default;size=10;" vertex="1" parent="1">
          <mxGeometry x="182.5" y="1100" width="95" height="20" as="geometry" />
        </mxCell>
        <mxCell id="_yVc6Fe7BxlGdp1vEw1C-96" style="edgeStyle=orthogonalEdgeStyle;shape=connector;curved=1;rounded=0;orthogonalLoop=1;jettySize=auto;html=1;exitX=1;exitY=0.5;exitDx=0;exitDy=0;entryX=0.5;entryY=0;entryDx=0;entryDy=0;strokeColor=default;align=center;verticalAlign=middle;fontFamily=Helvetica;fontSize=11;fontColor=default;labelBackgroundColor=default;endArrow=classic;" edge="1" parent="1" source="_yVc6Fe7BxlGdp1vEw1C-97" target="_yVc6Fe7BxlGdp1vEw1C-90">
          <mxGeometry relative="1" as="geometry" />
        </mxCell>
        <mxCell id="_yVc6Fe7BxlGdp1vEw1C-97" value="&lt;span style=&quot;text-wrap: nowrap;&quot;&gt;Timer 1&amp;nbsp;&lt;/span&gt;&lt;span style=&quot;text-wrap: nowrap;&quot;&gt;2s Passed&lt;/span&gt;" style="shape=hexagon;perimeter=hexagonPerimeter2;whiteSpace=wrap;html=1;fixedSize=1;fontFamily=Helvetica;fontSize=11;fontColor=default;labelBackgroundColor=default;size=10;" vertex="1" parent="1">
          <mxGeometry x="360" y="1100" width="120" height="20" as="geometry" />
        </mxCell>
        <mxCell id="_yVc6Fe7BxlGdp1vEw1C-98" style="edgeStyle=orthogonalEdgeStyle;shape=connector;curved=1;rounded=0;orthogonalLoop=1;jettySize=auto;html=1;exitX=0;exitY=0.5;exitDx=0;exitDy=0;entryX=0.5;entryY=1;entryDx=0;entryDy=0;strokeColor=default;align=center;verticalAlign=middle;fontFamily=Helvetica;fontSize=11;fontColor=default;labelBackgroundColor=default;endArrow=classic;" edge="1" parent="1" source="_yVc6Fe7BxlGdp1vEw1C-99" target="_yVc6Fe7BxlGdp1vEw1C-84">
          <mxGeometry relative="1" as="geometry" />
        </mxCell>
        <mxCell id="_yVc6Fe7BxlGdp1vEw1C-99" value="&lt;span style=&quot;text-wrap: nowrap;&quot;&gt;! BTN_CBPCH&lt;/span&gt;" style="shape=hexagon;perimeter=hexagonPerimeter2;whiteSpace=wrap;html=1;fixedSize=1;fontFamily=Helvetica;fontSize=11;fontColor=default;labelBackgroundColor=default;size=10;" vertex="1" parent="1">
          <mxGeometry x="185" y="1240" width="95" height="20" as="geometry" />
        </mxCell>
        <mxCell id="_yVc6Fe7BxlGdp1vEw1C-100" style="edgeStyle=orthogonalEdgeStyle;shape=connector;curved=1;rounded=0;orthogonalLoop=1;jettySize=auto;html=1;exitX=0;exitY=0.5;exitDx=0;exitDy=0;entryX=0;entryY=1;entryDx=0;entryDy=0;strokeColor=default;align=center;verticalAlign=middle;fontFamily=Helvetica;fontSize=11;fontColor=default;labelBackgroundColor=default;endArrow=classic;" edge="1" parent="1" source="_yVc6Fe7BxlGdp1vEw1C-101" target="_yVc6Fe7BxlGdp1vEw1C-90">
          <mxGeometry relative="1" as="geometry">
            <Array as="points">
              <mxPoint x="450" y="1250" />
              <mxPoint x="450" y="1208" />
            </Array>
          </mxGeometry>
        </mxCell>
        <mxCell id="_yVc6Fe7BxlGdp1vEw1C-101" value="&lt;span style=&quot;text-wrap: nowrap;&quot;&gt;true&lt;/span&gt;" style="shape=hexagon;perimeter=hexagonPerimeter2;whiteSpace=wrap;html=1;fixedSize=1;fontFamily=Helvetica;fontSize=11;fontColor=default;labelBackgroundColor=default;size=10;" vertex="1" parent="1">
          <mxGeometry x="490" y="1240" width="60" height="20" as="geometry" />
        </mxCell>
        <mxCell id="_yVc6Fe7BxlGdp1vEw1C-102" value="&lt;span style=&quot;font-size: 11px; text-wrap: nowrap; background-color: rgb(255, 255, 255);&quot;&gt;Timer 1&amp;nbsp;Record Current Time&lt;/span&gt;" style="rounded=1;whiteSpace=wrap;html=1;" vertex="1" parent="1">
          <mxGeometry x="340" y="1080" width="160" height="20" as="geometry" />
        </mxCell>
        <mxCell id="_yVc6Fe7BxlGdp1vEw1C-103" style="edgeStyle=orthogonalEdgeStyle;shape=connector;curved=1;rounded=0;orthogonalLoop=1;jettySize=auto;html=1;exitX=1;exitY=0.5;exitDx=0;exitDy=0;entryX=0.5;entryY=0;entryDx=0;entryDy=0;strokeColor=default;align=center;verticalAlign=middle;fontFamily=Helvetica;fontSize=11;fontColor=default;labelBackgroundColor=default;endArrow=classic;" edge="1" parent="1" source="_yVc6Fe7BxlGdp1vEw1C-104" target="_yVc6Fe7BxlGdp1vEw1C-91">
          <mxGeometry relative="1" as="geometry" />
        </mxCell>
        <mxCell id="_yVc6Fe7BxlGdp1vEw1C-104" value="&lt;span style=&quot;text-wrap: nowrap;&quot;&gt;Timer 1&lt;/span&gt;&lt;span style=&quot;text-wrap: nowrap;&quot;&gt;&amp;nbsp;2s Passed&lt;/span&gt;" style="shape=hexagon;perimeter=hexagonPerimeter2;whiteSpace=wrap;html=1;fixedSize=1;fontFamily=Helvetica;fontSize=11;fontColor=default;labelBackgroundColor=default;size=10;" vertex="1" parent="1">
          <mxGeometry x="560" y="1100" width="120" height="20" as="geometry" />
        </mxCell>
        <mxCell id="_yVc6Fe7BxlGdp1vEw1C-105" value="&lt;span style=&quot;font-size: 11px; text-wrap: nowrap; background-color: rgb(255, 255, 255);&quot;&gt;Record IMU Acceleration&lt;/span&gt;" style="rounded=1;whiteSpace=wrap;html=1;" vertex="1" parent="1">
          <mxGeometry x="450" y="1260" width="140" height="20" as="geometry" />
        </mxCell>
        <mxCell id="_yVc6Fe7BxlGdp1vEw1C-114" style="edgeStyle=orthogonalEdgeStyle;shape=connector;curved=1;rounded=0;orthogonalLoop=1;jettySize=auto;html=1;exitX=0;exitY=0.5;exitDx=0;exitDy=0;entryX=0.5;entryY=0;entryDx=0;entryDy=0;strokeColor=default;align=center;verticalAlign=middle;fontFamily=Helvetica;fontSize=11;fontColor=default;labelBackgroundColor=default;endArrow=classic;" edge="1" parent="1" source="_yVc6Fe7BxlGdp1vEw1C-106" target="_yVc6Fe7BxlGdp1vEw1C-84">
          <mxGeometry relative="1" as="geometry" />
        </mxCell>
        <mxCell id="_yVc6Fe7BxlGdp1vEw1C-106" value="&lt;span style=&quot;text-wrap: nowrap;&quot;&gt;true&lt;/span&gt;" style="shape=hexagon;perimeter=hexagonPerimeter2;whiteSpace=wrap;html=1;fixedSize=1;fontFamily=Helvetica;fontSize=11;fontColor=default;labelBackgroundColor=default;size=10;" vertex="1" parent="1">
          <mxGeometry x="290" y="950" width="60" height="20" as="geometry" />
        </mxCell>
        <mxCell id="_yVc6Fe7BxlGdp1vEw1C-167" style="edgeStyle=orthogonalEdgeStyle;shape=connector;curved=1;rounded=0;orthogonalLoop=1;jettySize=auto;html=1;exitX=0;exitY=0.5;exitDx=0;exitDy=0;entryX=1;entryY=0.5;entryDx=0;entryDy=0;strokeColor=default;align=center;verticalAlign=middle;fontFamily=Helvetica;fontSize=11;fontColor=default;labelBackgroundColor=default;endArrow=classic;" edge="1" parent="1" source="_yVc6Fe7BxlGdp1vEw1C-109" target="_yVc6Fe7BxlGdp1vEw1C-106">
          <mxGeometry relative="1" as="geometry" />
        </mxCell>
        <mxCell id="_yVc6Fe7BxlGdp1vEw1C-109" value="&lt;div&gt;&lt;div&gt;Idle 0&lt;/div&gt;&lt;/div&gt;&lt;div&gt;Finished&lt;/div&gt;" style="ellipse;whiteSpace=wrap;html=1;aspect=fixed;fontFamily=Helvetica;fontSize=11;fontColor=default;labelBackgroundColor=default;" vertex="1" parent="1">
          <mxGeometry x="680" y="920" width="80" height="80" as="geometry" />
        </mxCell>
        <mxCell id="_yVc6Fe7BxlGdp1vEw1C-166" style="edgeStyle=orthogonalEdgeStyle;shape=connector;curved=1;rounded=0;orthogonalLoop=1;jettySize=auto;html=1;exitX=0.5;exitY=1;exitDx=0;exitDy=0;entryX=0.5;entryY=0;entryDx=0;entryDy=0;strokeColor=default;align=center;verticalAlign=middle;fontFamily=Helvetica;fontSize=11;fontColor=default;labelBackgroundColor=default;endArrow=classic;" edge="1" parent="1" source="_yVc6Fe7BxlGdp1vEw1C-110" target="_yVc6Fe7BxlGdp1vEw1C-109">
          <mxGeometry relative="1" as="geometry" />
        </mxCell>
        <mxCell id="_yVc6Fe7BxlGdp1vEw1C-110" value="&lt;span style=&quot;text-wrap: nowrap;&quot;&gt;! BTN_CBGV&lt;/span&gt;" style="shape=hexagon;perimeter=hexagonPerimeter2;whiteSpace=wrap;html=1;fixedSize=1;fontFamily=Helvetica;fontSize=11;fontColor=default;labelBackgroundColor=default;size=10;" vertex="1" parent="1">
          <mxGeometry x="670" y="870" width="100" height="20" as="geometry" />
        </mxCell>
        <mxCell id="_yVc6Fe7BxlGdp1vEw1C-171" style="edgeStyle=orthogonalEdgeStyle;shape=connector;curved=1;rounded=0;orthogonalLoop=1;jettySize=auto;html=1;exitX=0;exitY=0.5;exitDx=0;exitDy=0;entryX=0.5;entryY=0;entryDx=0;entryDy=0;strokeColor=default;align=center;verticalAlign=middle;fontFamily=Helvetica;fontSize=11;fontColor=default;labelBackgroundColor=default;endArrow=classic;" edge="1" parent="1" source="_yVc6Fe7BxlGdp1vEw1C-115" target="_yVc6Fe7BxlGdp1vEw1C-139">
          <mxGeometry relative="1" as="geometry" />
        </mxCell>
        <mxCell id="_yVc6Fe7BxlGdp1vEw1C-115" value="&lt;span style=&quot;text-wrap: nowrap;&quot;&gt;true&lt;/span&gt;" style="shape=hexagon;perimeter=hexagonPerimeter2;whiteSpace=wrap;html=1;fixedSize=1;fontFamily=Helvetica;fontSize=11;fontColor=default;labelBackgroundColor=default;size=10;" vertex="1" parent="1">
          <mxGeometry x="290" y="1330" width="60" height="20" as="geometry" />
        </mxCell>
        <mxCell id="_yVc6Fe7BxlGdp1vEw1C-170" style="edgeStyle=orthogonalEdgeStyle;shape=connector;curved=1;rounded=0;orthogonalLoop=1;jettySize=auto;html=1;exitX=0;exitY=0.5;exitDx=0;exitDy=0;entryX=1;entryY=0.5;entryDx=0;entryDy=0;strokeColor=default;align=center;verticalAlign=middle;fontFamily=Helvetica;fontSize=11;fontColor=default;labelBackgroundColor=default;endArrow=classic;" edge="1" parent="1" source="_yVc6Fe7BxlGdp1vEw1C-117" target="_yVc6Fe7BxlGdp1vEw1C-115">
          <mxGeometry relative="1" as="geometry" />
        </mxCell>
        <mxCell id="_yVc6Fe7BxlGdp1vEw1C-117" value="&lt;div&gt;&lt;div&gt;Idle 1&lt;/div&gt;&lt;/div&gt;&lt;div&gt;Finished&lt;/div&gt;" style="ellipse;whiteSpace=wrap;html=1;aspect=fixed;fontFamily=Helvetica;fontSize=11;fontColor=default;labelBackgroundColor=default;" vertex="1" parent="1">
          <mxGeometry x="680" y="1300" width="80" height="80" as="geometry" />
        </mxCell>
        <mxCell id="_yVc6Fe7BxlGdp1vEw1C-169" style="edgeStyle=orthogonalEdgeStyle;shape=connector;curved=1;rounded=0;orthogonalLoop=1;jettySize=auto;html=1;exitX=0.5;exitY=1;exitDx=0;exitDy=0;entryX=0.5;entryY=0;entryDx=0;entryDy=0;strokeColor=default;align=center;verticalAlign=middle;fontFamily=Helvetica;fontSize=11;fontColor=default;labelBackgroundColor=default;endArrow=classic;" edge="1" parent="1" source="_yVc6Fe7BxlGdp1vEw1C-119" target="_yVc6Fe7BxlGdp1vEw1C-117">
          <mxGeometry relative="1" as="geometry" />
        </mxCell>
        <mxCell id="_yVc6Fe7BxlGdp1vEw1C-119" value="&lt;span style=&quot;text-wrap: nowrap;&quot;&gt;! BTN_CBPCH&lt;/span&gt;" style="shape=hexagon;perimeter=hexagonPerimeter2;whiteSpace=wrap;html=1;fixedSize=1;fontFamily=Helvetica;fontSize=11;fontColor=default;labelBackgroundColor=default;size=10;" vertex="1" parent="1">
          <mxGeometry x="670" y="1250" width="100" height="20" as="geometry" />
        </mxCell>
        <mxCell id="_yVc6Fe7BxlGdp1vEw1C-127" style="edgeStyle=orthogonalEdgeStyle;shape=connector;curved=1;rounded=0;orthogonalLoop=1;jettySize=auto;html=1;exitX=0.5;exitY=1;exitDx=0;exitDy=0;entryX=0;entryY=0.5;entryDx=0;entryDy=0;strokeColor=default;align=center;verticalAlign=middle;fontFamily=Helvetica;fontSize=11;fontColor=default;labelBackgroundColor=default;endArrow=classic;" edge="1" parent="1" source="_yVc6Fe7BxlGdp1vEw1C-121" target="_yVc6Fe7BxlGdp1vEw1C-124">
          <mxGeometry relative="1" as="geometry" />
        </mxCell>
        <mxCell id="_yVc6Fe7BxlGdp1vEw1C-133" style="edgeStyle=orthogonalEdgeStyle;shape=connector;curved=1;rounded=0;orthogonalLoop=1;jettySize=auto;html=1;exitX=0.5;exitY=0;exitDx=0;exitDy=0;entryX=0;entryY=0.5;entryDx=0;entryDy=0;strokeColor=default;align=center;verticalAlign=middle;fontFamily=Helvetica;fontSize=11;fontColor=default;labelBackgroundColor=default;endArrow=classic;" edge="1" parent="1" source="_yVc6Fe7BxlGdp1vEw1C-121" target="_yVc6Fe7BxlGdp1vEw1C-129">
          <mxGeometry relative="1" as="geometry" />
        </mxCell>
        <mxCell id="_yVc6Fe7BxlGdp1vEw1C-121" value="&lt;div&gt;Gravity Vec&lt;/div&gt;&lt;div&gt;Pressure&lt;/div&gt;&lt;div&gt;Calibrate 1&lt;/div&gt;" style="ellipse;whiteSpace=wrap;html=1;aspect=fixed;fontFamily=Helvetica;fontSize=11;fontColor=default;labelBackgroundColor=default;" vertex="1" parent="1">
          <mxGeometry x="-80" y="1140" width="80" height="80" as="geometry" />
        </mxCell>
        <mxCell id="_yVc6Fe7BxlGdp1vEw1C-122" value="&lt;span style=&quot;font-size: 11px; text-wrap: nowrap; background-color: rgb(255, 255, 255);&quot;&gt;Timer 1 Record Current Time&lt;/span&gt;" style="rounded=1;whiteSpace=wrap;html=1;" vertex="1" parent="1">
          <mxGeometry x="-30" y="1080" width="160" height="20" as="geometry" />
        </mxCell>
        <mxCell id="_yVc6Fe7BxlGdp1vEw1C-126" style="edgeStyle=orthogonalEdgeStyle;shape=connector;curved=1;rounded=0;orthogonalLoop=1;jettySize=auto;html=1;exitX=0;exitY=0.5;exitDx=0;exitDy=0;entryX=0.5;entryY=0;entryDx=0;entryDy=0;strokeColor=default;align=center;verticalAlign=middle;fontFamily=Helvetica;fontSize=11;fontColor=default;labelBackgroundColor=default;endArrow=classic;" edge="1" parent="1" source="_yVc6Fe7BxlGdp1vEw1C-123" target="_yVc6Fe7BxlGdp1vEw1C-121">
          <mxGeometry relative="1" as="geometry" />
        </mxCell>
        <mxCell id="_yVc6Fe7BxlGdp1vEw1C-123" value="&lt;span style=&quot;text-wrap: nowrap;&quot;&gt;BTN_CBGV&lt;/span&gt;" style="shape=hexagon;perimeter=hexagonPerimeter2;whiteSpace=wrap;html=1;fixedSize=1;fontFamily=Helvetica;fontSize=11;fontColor=default;labelBackgroundColor=default;size=10;" vertex="1" parent="1">
          <mxGeometry y="1100" width="100" height="20" as="geometry" />
        </mxCell>
        <mxCell id="_yVc6Fe7BxlGdp1vEw1C-128" style="edgeStyle=orthogonalEdgeStyle;shape=connector;curved=1;rounded=0;orthogonalLoop=1;jettySize=auto;html=1;exitX=1;exitY=0.5;exitDx=0;exitDy=0;entryX=0.5;entryY=1;entryDx=0;entryDy=0;strokeColor=default;align=center;verticalAlign=middle;fontFamily=Helvetica;fontSize=11;fontColor=default;labelBackgroundColor=default;endArrow=classic;" edge="1" parent="1" source="_yVc6Fe7BxlGdp1vEw1C-124" target="_yVc6Fe7BxlGdp1vEw1C-84">
          <mxGeometry relative="1" as="geometry" />
        </mxCell>
        <mxCell id="_yVc6Fe7BxlGdp1vEw1C-124" value="&lt;span style=&quot;text-wrap: nowrap;&quot;&gt;! BTN_CBGV&lt;/span&gt;" style="shape=hexagon;perimeter=hexagonPerimeter2;whiteSpace=wrap;html=1;fixedSize=1;fontFamily=Helvetica;fontSize=11;fontColor=default;labelBackgroundColor=default;size=10;" vertex="1" parent="1">
          <mxGeometry y="1240" width="100" height="20" as="geometry" />
        </mxCell>
        <mxCell id="_yVc6Fe7BxlGdp1vEw1C-134" style="edgeStyle=orthogonalEdgeStyle;shape=connector;curved=1;rounded=0;orthogonalLoop=1;jettySize=auto;html=1;exitX=1;exitY=0.5;exitDx=0;exitDy=0;entryX=0.5;entryY=0;entryDx=0;entryDy=0;strokeColor=default;align=center;verticalAlign=middle;fontFamily=Helvetica;fontSize=11;fontColor=default;labelBackgroundColor=default;endArrow=classic;" edge="1" parent="1" source="_yVc6Fe7BxlGdp1vEw1C-129" target="wyJI5OHo2Kch5RlbWxAS-17">
          <mxGeometry relative="1" as="geometry" />
        </mxCell>
        <mxCell id="_yVc6Fe7BxlGdp1vEw1C-129" value="&lt;span style=&quot;text-wrap: nowrap;&quot;&gt;Timer 1&amp;nbsp;&lt;/span&gt;&lt;span style=&quot;text-wrap: nowrap;&quot;&gt;2s Passed&lt;/span&gt;" style="shape=hexagon;perimeter=hexagonPerimeter2;whiteSpace=wrap;html=1;fixedSize=1;fontFamily=Helvetica;fontSize=11;fontColor=default;labelBackgroundColor=default;size=10;" vertex="1" parent="1">
          <mxGeometry x="260" y="640" width="120" height="20" as="geometry" />
        </mxCell>
        <mxCell id="_yVc6Fe7BxlGdp1vEw1C-130" value="&lt;span style=&quot;font-size: 11px; text-wrap: nowrap; background-color: rgb(255, 255, 255);&quot;&gt;Timer 1&amp;nbsp;Record Current Time&lt;/span&gt;" style="rounded=1;whiteSpace=wrap;html=1;" vertex="1" parent="1">
          <mxGeometry x="240" y="620" width="160" height="20" as="geometry" />
        </mxCell>
        <mxCell id="_yVc6Fe7BxlGdp1vEw1C-138" style="edgeStyle=orthogonalEdgeStyle;shape=connector;curved=1;rounded=0;orthogonalLoop=1;jettySize=auto;html=1;exitX=0.5;exitY=0;exitDx=0;exitDy=0;entryX=1;entryY=0.5;entryDx=0;entryDy=0;strokeColor=default;align=center;verticalAlign=middle;fontFamily=Helvetica;fontSize=11;fontColor=default;labelBackgroundColor=default;endArrow=classic;" edge="1" parent="1" source="_yVc6Fe7BxlGdp1vEw1C-139" target="_yVc6Fe7BxlGdp1vEw1C-152">
          <mxGeometry relative="1" as="geometry" />
        </mxCell>
        <mxCell id="_yVc6Fe7BxlGdp1vEw1C-155" style="edgeStyle=orthogonalEdgeStyle;shape=connector;curved=1;rounded=0;orthogonalLoop=1;jettySize=auto;html=1;exitX=0.5;exitY=0;exitDx=0;exitDy=0;entryX=1;entryY=0.5;entryDx=0;entryDy=0;strokeColor=default;align=center;verticalAlign=middle;fontFamily=Helvetica;fontSize=11;fontColor=default;labelBackgroundColor=default;endArrow=classic;" edge="1" parent="1" source="_yVc6Fe7BxlGdp1vEw1C-139" target="_yVc6Fe7BxlGdp1vEw1C-145">
          <mxGeometry relative="1" as="geometry" />
        </mxCell>
        <mxCell id="_yVc6Fe7BxlGdp1vEw1C-193" style="edgeStyle=orthogonalEdgeStyle;shape=connector;curved=1;rounded=0;orthogonalLoop=1;jettySize=auto;html=1;exitX=0.5;exitY=0;exitDx=0;exitDy=0;entryX=0;entryY=0.5;entryDx=0;entryDy=0;strokeColor=default;align=center;verticalAlign=middle;fontFamily=Helvetica;fontSize=11;fontColor=default;labelBackgroundColor=default;endArrow=classic;" edge="1" parent="1" source="_yVc6Fe7BxlGdp1vEw1C-139" target="_yVc6Fe7BxlGdp1vEw1C-190">
          <mxGeometry relative="1" as="geometry" />
        </mxCell>
        <mxCell id="_yVc6Fe7BxlGdp1vEw1C-139" value="Active" style="ellipse;whiteSpace=wrap;html=1;aspect=fixed;" vertex="1" parent="1">
          <mxGeometry x="100" y="1440" width="80" height="80" as="geometry" />
        </mxCell>
        <mxCell id="_yVc6Fe7BxlGdp1vEw1C-157" style="edgeStyle=orthogonalEdgeStyle;shape=connector;curved=1;rounded=0;orthogonalLoop=1;jettySize=auto;html=1;exitX=0.5;exitY=1;exitDx=0;exitDy=0;entryX=0;entryY=0.5;entryDx=0;entryDy=0;strokeColor=default;align=center;verticalAlign=middle;fontFamily=Helvetica;fontSize=11;fontColor=default;labelBackgroundColor=default;endArrow=classic;" edge="1" parent="1" source="_yVc6Fe7BxlGdp1vEw1C-142" target="_yVc6Fe7BxlGdp1vEw1C-147">
          <mxGeometry relative="1" as="geometry" />
        </mxCell>
        <mxCell id="_yVc6Fe7BxlGdp1vEw1C-176" style="edgeStyle=orthogonalEdgeStyle;shape=connector;curved=1;rounded=0;orthogonalLoop=1;jettySize=auto;html=1;exitX=0;exitY=0.5;exitDx=0;exitDy=0;entryX=0;entryY=0.5;entryDx=0;entryDy=0;strokeColor=default;align=center;verticalAlign=middle;fontFamily=Helvetica;fontSize=11;fontColor=default;labelBackgroundColor=default;endArrow=classic;" edge="1" parent="1" source="_yVc6Fe7BxlGdp1vEw1C-142" target="_yVc6Fe7BxlGdp1vEw1C-160">
          <mxGeometry relative="1" as="geometry">
            <Array as="points">
              <mxPoint x="-140" y="1480" />
              <mxPoint x="-140" y="1030" />
            </Array>
          </mxGeometry>
        </mxCell>
        <mxCell id="_yVc6Fe7BxlGdp1vEw1C-142" value="&lt;div&gt;Pitch Vec&lt;/div&gt;&lt;div&gt;Calibrate 2&lt;/div&gt;" style="ellipse;whiteSpace=wrap;html=1;aspect=fixed;fontFamily=Helvetica;fontSize=11;fontColor=default;labelBackgroundColor=default;" vertex="1" parent="1">
          <mxGeometry x="-80" y="1440" width="80" height="80" as="geometry" />
        </mxCell>
        <mxCell id="_yVc6Fe7BxlGdp1vEw1C-143" value="&lt;span style=&quot;font-size: 11px; text-wrap: nowrap; background-color: rgb(255, 255, 255);&quot;&gt;Timer 1 Record Current Time&lt;/span&gt;" style="rounded=1;whiteSpace=wrap;html=1;" vertex="1" parent="1">
          <mxGeometry x="-30" y="1380" width="160" height="20" as="geometry" />
        </mxCell>
        <mxCell id="_yVc6Fe7BxlGdp1vEw1C-156" style="edgeStyle=orthogonalEdgeStyle;shape=connector;curved=1;rounded=0;orthogonalLoop=1;jettySize=auto;html=1;exitX=0;exitY=0.5;exitDx=0;exitDy=0;entryX=0.5;entryY=0;entryDx=0;entryDy=0;strokeColor=default;align=center;verticalAlign=middle;fontFamily=Helvetica;fontSize=11;fontColor=default;labelBackgroundColor=default;endArrow=classic;" edge="1" parent="1" source="_yVc6Fe7BxlGdp1vEw1C-145" target="_yVc6Fe7BxlGdp1vEw1C-142">
          <mxGeometry relative="1" as="geometry" />
        </mxCell>
        <mxCell id="_yVc6Fe7BxlGdp1vEw1C-145" value="&lt;span style=&quot;text-wrap: nowrap;&quot;&gt;BTN_CBPCH&lt;/span&gt;" style="shape=hexagon;perimeter=hexagonPerimeter2;whiteSpace=wrap;html=1;fixedSize=1;fontFamily=Helvetica;fontSize=11;fontColor=default;labelBackgroundColor=default;size=10;" vertex="1" parent="1">
          <mxGeometry y="1400" width="97.5" height="20" as="geometry" />
        </mxCell>
        <mxCell id="_yVc6Fe7BxlGdp1vEw1C-158" style="edgeStyle=orthogonalEdgeStyle;shape=connector;curved=1;rounded=0;orthogonalLoop=1;jettySize=auto;html=1;exitX=1;exitY=0.5;exitDx=0;exitDy=0;entryX=0.5;entryY=1;entryDx=0;entryDy=0;strokeColor=default;align=center;verticalAlign=middle;fontFamily=Helvetica;fontSize=11;fontColor=default;labelBackgroundColor=default;endArrow=classic;" edge="1" parent="1" source="_yVc6Fe7BxlGdp1vEw1C-147" target="_yVc6Fe7BxlGdp1vEw1C-139">
          <mxGeometry relative="1" as="geometry" />
        </mxCell>
        <mxCell id="_yVc6Fe7BxlGdp1vEw1C-147" value="&lt;span style=&quot;text-wrap: nowrap;&quot;&gt;! BTN_CBPCH&lt;/span&gt;" style="shape=hexagon;perimeter=hexagonPerimeter2;whiteSpace=wrap;html=1;fixedSize=1;fontFamily=Helvetica;fontSize=11;fontColor=default;labelBackgroundColor=default;size=10;" vertex="1" parent="1">
          <mxGeometry y="1540" width="100" height="20" as="geometry" />
        </mxCell>
        <mxCell id="_yVc6Fe7BxlGdp1vEw1C-148" style="edgeStyle=orthogonalEdgeStyle;shape=connector;curved=1;rounded=0;orthogonalLoop=1;jettySize=auto;html=1;exitX=0.5;exitY=1;exitDx=0;exitDy=0;entryX=0;entryY=0.5;entryDx=0;entryDy=0;strokeColor=default;align=center;verticalAlign=middle;fontFamily=Helvetica;fontSize=11;fontColor=default;labelBackgroundColor=default;endArrow=classic;" edge="1" parent="1" source="_yVc6Fe7BxlGdp1vEw1C-149" target="_yVc6Fe7BxlGdp1vEw1C-154">
          <mxGeometry relative="1" as="geometry" />
        </mxCell>
        <mxCell id="_yVc6Fe7BxlGdp1vEw1C-163" style="edgeStyle=orthogonalEdgeStyle;shape=connector;curved=1;rounded=0;orthogonalLoop=1;jettySize=auto;html=1;exitX=0.5;exitY=0;exitDx=0;exitDy=0;entryX=0;entryY=0.5;entryDx=0;entryDy=0;strokeColor=default;align=center;verticalAlign=middle;fontFamily=Helvetica;fontSize=11;fontColor=default;labelBackgroundColor=default;endArrow=classic;" edge="1" parent="1" source="_yVc6Fe7BxlGdp1vEw1C-149" target="_yVc6Fe7BxlGdp1vEw1C-129">
          <mxGeometry relative="1" as="geometry" />
        </mxCell>
        <mxCell id="_yVc6Fe7BxlGdp1vEw1C-149" value="&lt;div&gt;Gravity Vec&lt;/div&gt;&lt;div&gt;Pressure&lt;/div&gt;&lt;div&gt;Calibrate 2&lt;/div&gt;" style="ellipse;whiteSpace=wrap;html=1;aspect=fixed;fontFamily=Helvetica;fontSize=11;fontColor=default;labelBackgroundColor=default;" vertex="1" parent="1">
          <mxGeometry x="-220" y="1440" width="80" height="80" as="geometry" />
        </mxCell>
        <mxCell id="_yVc6Fe7BxlGdp1vEw1C-150" value="&lt;span style=&quot;font-size: 11px; text-wrap: nowrap; background-color: rgb(255, 255, 255);&quot;&gt;Timer 1 Record Current Time&lt;/span&gt;" style="rounded=1;whiteSpace=wrap;html=1;" vertex="1" parent="1">
          <mxGeometry x="-32.5" y="1320" width="160" height="20" as="geometry" />
        </mxCell>
        <mxCell id="_yVc6Fe7BxlGdp1vEw1C-151" style="edgeStyle=orthogonalEdgeStyle;shape=connector;curved=1;rounded=0;orthogonalLoop=1;jettySize=auto;html=1;exitX=0;exitY=0.5;exitDx=0;exitDy=0;entryX=0.5;entryY=0;entryDx=0;entryDy=0;strokeColor=default;align=center;verticalAlign=middle;fontFamily=Helvetica;fontSize=11;fontColor=default;labelBackgroundColor=default;endArrow=classic;" edge="1" parent="1" source="_yVc6Fe7BxlGdp1vEw1C-152" target="_yVc6Fe7BxlGdp1vEw1C-149">
          <mxGeometry relative="1" as="geometry" />
        </mxCell>
        <mxCell id="_yVc6Fe7BxlGdp1vEw1C-152" value="&lt;span style=&quot;text-wrap: nowrap;&quot;&gt;BTN_CBGV&lt;/span&gt;" style="shape=hexagon;perimeter=hexagonPerimeter2;whiteSpace=wrap;html=1;fixedSize=1;fontFamily=Helvetica;fontSize=11;fontColor=default;labelBackgroundColor=default;size=10;" vertex="1" parent="1">
          <mxGeometry x="-2.5" y="1340" width="100" height="20" as="geometry" />
        </mxCell>
        <mxCell id="_yVc6Fe7BxlGdp1vEw1C-153" style="edgeStyle=orthogonalEdgeStyle;shape=connector;curved=1;rounded=0;orthogonalLoop=1;jettySize=auto;html=1;exitX=1;exitY=0.5;exitDx=0;exitDy=0;entryX=0.5;entryY=1;entryDx=0;entryDy=0;strokeColor=default;align=center;verticalAlign=middle;fontFamily=Helvetica;fontSize=11;fontColor=default;labelBackgroundColor=default;endArrow=classic;" edge="1" parent="1" source="_yVc6Fe7BxlGdp1vEw1C-154" target="_yVc6Fe7BxlGdp1vEw1C-139">
          <mxGeometry relative="1" as="geometry" />
        </mxCell>
        <mxCell id="_yVc6Fe7BxlGdp1vEw1C-154" value="&lt;span style=&quot;text-wrap: nowrap;&quot;&gt;! BTN_CBGV&lt;/span&gt;" style="shape=hexagon;perimeter=hexagonPerimeter2;whiteSpace=wrap;html=1;fixedSize=1;fontFamily=Helvetica;fontSize=11;fontColor=default;labelBackgroundColor=default;size=10;" vertex="1" parent="1">
          <mxGeometry y="1580" width="100" height="20" as="geometry" />
        </mxCell>
        <mxCell id="_yVc6Fe7BxlGdp1vEw1C-159" value="&lt;span style=&quot;font-size: 11px; text-wrap: nowrap; background-color: rgb(255, 255, 255);&quot;&gt;Timer 1 Record Current Time&lt;/span&gt;" style="rounded=1;whiteSpace=wrap;html=1;" vertex="1" parent="1">
          <mxGeometry x="240" y="1000" width="160" height="20" as="geometry" />
        </mxCell>
        <mxCell id="_yVc6Fe7BxlGdp1vEw1C-161" style="edgeStyle=orthogonalEdgeStyle;shape=connector;curved=1;rounded=0;orthogonalLoop=1;jettySize=auto;html=1;exitX=1;exitY=0.5;exitDx=0;exitDy=0;entryX=0.5;entryY=0;entryDx=0;entryDy=0;strokeColor=default;align=center;verticalAlign=middle;fontFamily=Helvetica;fontSize=11;fontColor=default;labelBackgroundColor=default;endArrow=classic;" edge="1" parent="1" source="_yVc6Fe7BxlGdp1vEw1C-160" target="_yVc6Fe7BxlGdp1vEw1C-90">
          <mxGeometry relative="1" as="geometry" />
        </mxCell>
        <mxCell id="_yVc6Fe7BxlGdp1vEw1C-160" value="&lt;span style=&quot;text-wrap: nowrap;&quot;&gt;Timer 1&amp;nbsp;&lt;/span&gt;&lt;span style=&quot;text-wrap: nowrap;&quot;&gt;2s Passed&lt;/span&gt;" style="shape=hexagon;perimeter=hexagonPerimeter2;whiteSpace=wrap;html=1;fixedSize=1;fontFamily=Helvetica;fontSize=11;fontColor=default;labelBackgroundColor=default;size=10;" vertex="1" parent="1">
          <mxGeometry x="255" y="1020" width="130" height="20" as="geometry" />
        </mxCell>
        <mxCell id="_yVc6Fe7BxlGdp1vEw1C-180" style="edgeStyle=orthogonalEdgeStyle;shape=connector;curved=1;rounded=0;orthogonalLoop=1;jettySize=auto;html=1;exitX=0.5;exitY=0;exitDx=0;exitDy=0;entryX=0;entryY=0.5;entryDx=0;entryDy=0;strokeColor=default;align=center;verticalAlign=middle;fontFamily=Helvetica;fontSize=11;fontColor=default;labelBackgroundColor=default;endArrow=classic;" edge="1" parent="1" source="_yVc6Fe7BxlGdp1vEw1C-177" target="_yVc6Fe7BxlGdp1vEw1C-179">
          <mxGeometry relative="1" as="geometry" />
        </mxCell>
        <mxCell id="_yVc6Fe7BxlGdp1vEw1C-186" style="edgeStyle=orthogonalEdgeStyle;shape=connector;curved=1;rounded=0;orthogonalLoop=1;jettySize=auto;html=1;exitX=0;exitY=0.5;exitDx=0;exitDy=0;entryX=0.5;entryY=0;entryDx=0;entryDy=0;strokeColor=default;align=center;verticalAlign=middle;fontFamily=Helvetica;fontSize=11;fontColor=default;labelBackgroundColor=default;endArrow=classic;" edge="1" parent="1" source="_yVc6Fe7BxlGdp1vEw1C-177" target="_yVc6Fe7BxlGdp1vEw1C-182">
          <mxGeometry relative="1" as="geometry" />
        </mxCell>
        <mxCell id="_yVc6Fe7BxlGdp1vEw1C-177" value="Initialization" style="ellipse;whiteSpace=wrap;html=1;aspect=fixed;" vertex="1" parent="1">
          <mxGeometry x="-200" y="760" width="80" height="80" as="geometry" />
        </mxCell>
        <mxCell id="_yVc6Fe7BxlGdp1vEw1C-181" style="edgeStyle=orthogonalEdgeStyle;shape=connector;curved=1;rounded=0;orthogonalLoop=1;jettySize=auto;html=1;exitX=1;exitY=0.5;exitDx=0;exitDy=0;entryX=0.5;entryY=0;entryDx=0;entryDy=0;strokeColor=default;align=center;verticalAlign=middle;fontFamily=Helvetica;fontSize=11;fontColor=default;labelBackgroundColor=default;endArrow=classic;" edge="1" parent="1" source="_yVc6Fe7BxlGdp1vEw1C-179" target="wyJI5OHo2Kch5RlbWxAS-14">
          <mxGeometry relative="1" as="geometry" />
        </mxCell>
        <mxCell id="_yVc6Fe7BxlGdp1vEw1C-179" value="&lt;span style=&quot;text-wrap: nowrap;&quot;&gt;! EPPROM Ver. Matched&lt;/span&gt;" style="shape=hexagon;perimeter=hexagonPerimeter2;whiteSpace=wrap;html=1;fixedSize=1;fontFamily=Helvetica;fontSize=11;fontColor=default;labelBackgroundColor=default;size=10;" vertex="1" parent="1">
          <mxGeometry x="-90" y="720" width="160" height="20" as="geometry" />
        </mxCell>
        <mxCell id="_yVc6Fe7BxlGdp1vEw1C-187" style="edgeStyle=orthogonalEdgeStyle;shape=connector;curved=1;rounded=0;orthogonalLoop=1;jettySize=auto;html=1;exitX=0.5;exitY=1;exitDx=0;exitDy=0;entryX=0.5;entryY=1;entryDx=0;entryDy=0;strokeColor=default;align=center;verticalAlign=middle;fontFamily=Helvetica;fontSize=11;fontColor=default;labelBackgroundColor=default;endArrow=classic;" edge="1" parent="1" source="_yVc6Fe7BxlGdp1vEw1C-182" target="_yVc6Fe7BxlGdp1vEw1C-139">
          <mxGeometry relative="1" as="geometry">
            <Array as="points">
              <mxPoint x="-280" y="1660" />
              <mxPoint x="140" y="1660" />
            </Array>
          </mxGeometry>
        </mxCell>
        <mxCell id="_yVc6Fe7BxlGdp1vEw1C-182" value="&lt;span style=&quot;text-wrap: nowrap;&quot;&gt;EPPROM Ver. Matched&lt;/span&gt;" style="shape=hexagon;perimeter=hexagonPerimeter2;whiteSpace=wrap;html=1;fixedSize=1;fontFamily=Helvetica;fontSize=11;fontColor=default;labelBackgroundColor=default;size=10;" vertex="1" parent="1">
          <mxGeometry x="-350" y="1200" width="140" height="20" as="geometry" />
        </mxCell>
        <mxCell id="_yVc6Fe7BxlGdp1vEw1C-196" style="edgeStyle=orthogonalEdgeStyle;shape=connector;curved=1;rounded=0;orthogonalLoop=1;jettySize=auto;html=1;exitX=0.5;exitY=1;exitDx=0;exitDy=0;entryX=1;entryY=0.5;entryDx=0;entryDy=0;strokeColor=default;align=center;verticalAlign=middle;fontFamily=Helvetica;fontSize=11;fontColor=default;labelBackgroundColor=default;endArrow=classic;" edge="1" parent="1" source="_yVc6Fe7BxlGdp1vEw1C-189" target="_yVc6Fe7BxlGdp1vEw1C-191">
          <mxGeometry relative="1" as="geometry" />
        </mxCell>
        <mxCell id="_yVc6Fe7BxlGdp1vEw1C-200" style="edgeStyle=orthogonalEdgeStyle;shape=connector;curved=1;rounded=0;orthogonalLoop=1;jettySize=auto;html=1;exitX=0.5;exitY=0;exitDx=0;exitDy=0;entryX=0;entryY=0.5;entryDx=0;entryDy=0;strokeColor=default;align=center;verticalAlign=middle;fontFamily=Helvetica;fontSize=11;fontColor=default;labelBackgroundColor=default;endArrow=classic;" edge="1" parent="1" source="_yVc6Fe7BxlGdp1vEw1C-189" target="_yVc6Fe7BxlGdp1vEw1C-199">
          <mxGeometry relative="1" as="geometry" />
        </mxCell>
        <mxCell id="_yVc6Fe7BxlGdp1vEw1C-189" value="Save&amp;nbsp;&lt;div&gt;Calibration&lt;/div&gt;" style="ellipse;whiteSpace=wrap;html=1;aspect=fixed;" vertex="1" parent="1">
          <mxGeometry x="280" y="1440" width="80" height="80" as="geometry" />
        </mxCell>
        <mxCell id="_yVc6Fe7BxlGdp1vEw1C-194" style="edgeStyle=orthogonalEdgeStyle;shape=connector;curved=1;rounded=0;orthogonalLoop=1;jettySize=auto;html=1;exitX=1;exitY=0.5;exitDx=0;exitDy=0;entryX=0.5;entryY=0;entryDx=0;entryDy=0;strokeColor=default;align=center;verticalAlign=middle;fontFamily=Helvetica;fontSize=11;fontColor=default;labelBackgroundColor=default;endArrow=classic;" edge="1" parent="1" source="_yVc6Fe7BxlGdp1vEw1C-190" target="_yVc6Fe7BxlGdp1vEw1C-189">
          <mxGeometry relative="1" as="geometry" />
        </mxCell>
        <mxCell id="_yVc6Fe7BxlGdp1vEw1C-190" value="&lt;span style=&quot;text-wrap: nowrap;&quot;&gt;BTN_SAVE&lt;/span&gt;" style="shape=hexagon;perimeter=hexagonPerimeter2;whiteSpace=wrap;html=1;fixedSize=1;fontFamily=Helvetica;fontSize=11;fontColor=default;labelBackgroundColor=default;size=10;" vertex="1" parent="1">
          <mxGeometry x="180" y="1400" width="100" height="20" as="geometry" />
        </mxCell>
        <mxCell id="_yVc6Fe7BxlGdp1vEw1C-197" style="edgeStyle=orthogonalEdgeStyle;shape=connector;curved=1;rounded=0;orthogonalLoop=1;jettySize=auto;html=1;exitX=0;exitY=0.5;exitDx=0;exitDy=0;entryX=0.5;entryY=1;entryDx=0;entryDy=0;strokeColor=default;align=center;verticalAlign=middle;fontFamily=Helvetica;fontSize=11;fontColor=default;labelBackgroundColor=default;endArrow=classic;" edge="1" parent="1" source="_yVc6Fe7BxlGdp1vEw1C-191" target="_yVc6Fe7BxlGdp1vEw1C-139">
          <mxGeometry relative="1" as="geometry" />
        </mxCell>
        <mxCell id="_yVc6Fe7BxlGdp1vEw1C-191" value="&lt;span style=&quot;text-wrap: nowrap;&quot;&gt;! BTN_SAVE&lt;/span&gt;" style="shape=hexagon;perimeter=hexagonPerimeter2;whiteSpace=wrap;html=1;fixedSize=1;fontFamily=Helvetica;fontSize=11;fontColor=default;labelBackgroundColor=default;size=10;" vertex="1" parent="1">
          <mxGeometry x="182.5" y="1540" width="100" height="20" as="geometry" />
        </mxCell>
        <mxCell id="_yVc6Fe7BxlGdp1vEw1C-192" value="&lt;span style=&quot;font-size: 11px; text-wrap: nowrap; background-color: rgb(255, 255, 255);&quot;&gt;Timer 1 Record Current Time&lt;/span&gt;" style="rounded=1;whiteSpace=wrap;html=1;" vertex="1" parent="1">
          <mxGeometry x="152.5" y="1380" width="160" height="20" as="geometry" />
        </mxCell>
        <mxCell id="_yVc6Fe7BxlGdp1vEw1C-204" style="edgeStyle=orthogonalEdgeStyle;shape=connector;curved=1;rounded=0;orthogonalLoop=1;jettySize=auto;html=1;exitX=0.5;exitY=1;exitDx=0;exitDy=0;entryX=1;entryY=0.5;entryDx=0;entryDy=0;strokeColor=default;align=center;verticalAlign=middle;fontFamily=Helvetica;fontSize=11;fontColor=default;labelBackgroundColor=default;endArrow=classic;" edge="1" parent="1" source="_yVc6Fe7BxlGdp1vEw1C-198" target="_yVc6Fe7BxlGdp1vEw1C-203">
          <mxGeometry relative="1" as="geometry" />
        </mxCell>
        <mxCell id="_yVc6Fe7BxlGdp1vEw1C-198" value="Save&amp;nbsp;&lt;div&gt;Calibration&lt;/div&gt;&lt;div&gt;Finished&lt;/div&gt;" style="ellipse;whiteSpace=wrap;html=1;aspect=fixed;" vertex="1" parent="1">
          <mxGeometry x="480" y="1440" width="80" height="80" as="geometry" />
        </mxCell>
        <mxCell id="_yVc6Fe7BxlGdp1vEw1C-201" style="edgeStyle=orthogonalEdgeStyle;shape=connector;curved=1;rounded=0;orthogonalLoop=1;jettySize=auto;html=1;exitX=1;exitY=0.5;exitDx=0;exitDy=0;entryX=0.5;entryY=0;entryDx=0;entryDy=0;strokeColor=default;align=center;verticalAlign=middle;fontFamily=Helvetica;fontSize=11;fontColor=default;labelBackgroundColor=default;endArrow=classic;" edge="1" parent="1" source="_yVc6Fe7BxlGdp1vEw1C-199" target="_yVc6Fe7BxlGdp1vEw1C-198">
          <mxGeometry relative="1" as="geometry" />
        </mxCell>
        <mxCell id="_yVc6Fe7BxlGdp1vEw1C-199" value="&lt;span style=&quot;text-wrap: nowrap;&quot;&gt;Timer 1 5&lt;/span&gt;&lt;span style=&quot;text-wrap: nowrap;&quot;&gt;s Passed&lt;/span&gt;" style="shape=hexagon;perimeter=hexagonPerimeter2;whiteSpace=wrap;html=1;fixedSize=1;fontFamily=Helvetica;fontSize=11;fontColor=default;labelBackgroundColor=default;size=10;" vertex="1" parent="1">
          <mxGeometry x="360" y="1400" width="120" height="20" as="geometry" />
        </mxCell>
        <mxCell id="_yVc6Fe7BxlGdp1vEw1C-202" value="Save Calibration to EPPRON" style="rounded=1;whiteSpace=wrap;html=1;fontFamily=Helvetica;fontSize=11;fontColor=default;labelBackgroundColor=default;" vertex="1" parent="1">
          <mxGeometry x="360" y="1360" width="120" height="40" as="geometry" />
        </mxCell>
        <mxCell id="_yVc6Fe7BxlGdp1vEw1C-205" style="edgeStyle=orthogonalEdgeStyle;shape=connector;curved=1;rounded=0;orthogonalLoop=1;jettySize=auto;html=1;exitX=0;exitY=0.5;exitDx=0;exitDy=0;entryX=0.5;entryY=1;entryDx=0;entryDy=0;strokeColor=default;align=center;verticalAlign=middle;fontFamily=Helvetica;fontSize=11;fontColor=default;labelBackgroundColor=default;endArrow=classic;" edge="1" parent="1" source="_yVc6Fe7BxlGdp1vEw1C-203" target="_yVc6Fe7BxlGdp1vEw1C-139">
          <mxGeometry relative="1" as="geometry" />
        </mxCell>
        <mxCell id="_yVc6Fe7BxlGdp1vEw1C-203" value="&lt;span style=&quot;text-wrap: nowrap;&quot;&gt;true&lt;/span&gt;" style="shape=hexagon;perimeter=hexagonPerimeter2;whiteSpace=wrap;html=1;fixedSize=1;fontFamily=Helvetica;fontSize=11;fontColor=default;labelBackgroundColor=default;size=10;" vertex="1" parent="1">
          <mxGeometry x="290" y="1580" width="60" height="20" as="geometry" />
        </mxCell>
        <mxCell id="_yVc6Fe7BxlGdp1vEw1C-207" value="" style="endArrow=classic;html=1;rounded=0;strokeColor=default;align=center;verticalAlign=middle;fontFamily=Helvetica;fontSize=11;fontColor=default;labelBackgroundColor=default;entryX=0;entryY=0;entryDx=0;entryDy=0;strokeWidth=3;" edge="1" parent="1" target="_yVc6Fe7BxlGdp1vEw1C-177">
          <mxGeometry width="50" height="50" relative="1" as="geometry">
            <mxPoint x="-280" y="680" as="sourcePoint" />
            <mxPoint x="-260" y="790" as="targetPoint" />
          </mxGeometry>
        </mxCell>
        <mxCell id="_yVc6Fe7BxlGdp1vEw1C-208" value="Initialization" style="ellipse;whiteSpace=wrap;html=1;aspect=fixed;" vertex="1" parent="1">
          <mxGeometry x="1000" y="1160" width="80" height="80" as="geometry" />
        </mxCell>
        <mxCell id="_yVc6Fe7BxlGdp1vEw1C-209" value="&lt;b&gt;&lt;font style=&quot;font-size: 20px;&quot;&gt;Main Loop&lt;/font&gt;&lt;/b&gt;" style="text;html=1;align=center;verticalAlign=middle;whiteSpace=wrap;rounded=0;fontFamily=Helvetica;fontSize=11;fontColor=default;labelBackgroundColor=default;" vertex="1" parent="1">
          <mxGeometry x="80" y="1680" width="320" height="40" as="geometry" />
        </mxCell>
        <mxCell id="_yVc6Fe7BxlGdp1vEw1C-210" value="Display&lt;div&gt;Active&lt;/div&gt;" style="ellipse;whiteSpace=wrap;html=1;aspect=fixed;" vertex="1" parent="1">
          <mxGeometry x="1220" y="1240" width="80" height="80" as="geometry" />
        </mxCell>
        <mxCell id="_yVc6Fe7BxlGdp1vEw1C-211" value="&lt;span style=&quot;text-wrap: nowrap;&quot;&gt;Main Loop in&amp;nbsp;&lt;/span&gt;&lt;div&gt;&lt;span style=&quot;text-wrap: nowrap;&quot;&gt;Active State&lt;/span&gt;&lt;/div&gt;" style="shape=hexagon;perimeter=hexagonPerimeter2;whiteSpace=wrap;html=1;fixedSize=1;fontFamily=Helvetica;fontSize=11;fontColor=default;labelBackgroundColor=default;size=10;" vertex="1" parent="1">
          <mxGeometry x="1080" y="1260" width="100" height="40" as="geometry" />
        </mxCell>
        <mxCell id="_yVc6Fe7BxlGdp1vEw1C-212" value="&lt;span style=&quot;text-wrap: nowrap;&quot;&gt;! Main Loop in&amp;nbsp;&lt;/span&gt;&lt;div&gt;&lt;span style=&quot;text-wrap: nowrap;&quot;&gt;Active State&lt;/span&gt;&lt;/div&gt;" style="shape=hexagon;perimeter=hexagonPerimeter2;whiteSpace=wrap;html=1;fixedSize=1;fontFamily=Helvetica;fontSize=11;fontColor=default;labelBackgroundColor=default;size=10;" vertex="1" parent="1">
          <mxGeometry x="1340" y="1260" width="100" height="40" as="geometry" />
        </mxCell>
        <mxCell id="_yVc6Fe7BxlGdp1vEw1C-217" value="Display&lt;div&gt;Active&lt;/div&gt;" style="ellipse;whiteSpace=wrap;html=1;aspect=fixed;" vertex="1" parent="1">
          <mxGeometry x="1220" y="1360" width="80" height="80" as="geometry" />
        </mxCell>
        <mxCell id="_yVc6Fe7BxlGdp1vEw1C-218" value="&lt;span style=&quot;text-wrap: nowrap;&quot;&gt;Main Loop in&amp;nbsp;&lt;/span&gt;&lt;div&gt;&lt;span style=&quot;text-wrap: nowrap;&quot;&gt;Active State&lt;/span&gt;&lt;/div&gt;" style="shape=hexagon;perimeter=hexagonPerimeter2;whiteSpace=wrap;html=1;fixedSize=1;fontFamily=Helvetica;fontSize=11;fontColor=default;labelBackgroundColor=default;size=10;" vertex="1" parent="1">
          <mxGeometry x="1080" y="1380" width="100" height="40" as="geometry" />
        </mxCell>
        <mxCell id="_yVc6Fe7BxlGdp1vEw1C-219" value="&lt;span style=&quot;text-wrap: nowrap;&quot;&gt;! Main Loop in&amp;nbsp;&lt;/span&gt;&lt;div&gt;&lt;span style=&quot;text-wrap: nowrap;&quot;&gt;Active State&lt;/span&gt;&lt;/div&gt;" style="shape=hexagon;perimeter=hexagonPerimeter2;whiteSpace=wrap;html=1;fixedSize=1;fontFamily=Helvetica;fontSize=11;fontColor=default;labelBackgroundColor=default;size=10;" vertex="1" parent="1">
          <mxGeometry x="1340" y="1380" width="100" height="40" as="geometry" />
        </mxCell>
      </root>
    </mxGraphModel>
  </diagram>
</mxfile>
